{
    "asset" : {
        "generator" : "Khronos glTF Blender I/O v1.2.75",
        "version" : "2.0"
    },
    "scene" : 0,
    "scenes" : [
        {
            "name" : "Scene",
            "nodes" : [
                14
            ]
        }
    ],
    "nodes" : [
        {
            "mesh" : 0,
            "name" : "Box063_01 - Default_0"
        },
        {
            "mesh" : 1,
            "name" : "Box063_22 - Default_0"
        },
        {
            "mesh" : 2,
            "name" : "Box063_azul_0"
        },
        {
            "mesh" : 3,
            "name" : "Box063_branco_0"
        },
        {
            "mesh" : 4,
            "name" : "Box063_chome_0"
        },
        {
            "mesh" : 5,
            "name" : "Box063_logo_0"
        },
        {
            "mesh" : 6,
            "name" : "Box063_Material #27289_0"
        },
        {
            "mesh" : 7,
            "name" : "Box063_Material #27729_0"
        },
        {
            "mesh" : 8,
            "name" : "Box063_sofa branco_0"
        },
        {
            "mesh" : 9,
            "name" : "Box063_VIDRO_0"
        },
        {
            "children" : [
                0,
                1,
                2,
                3,
                4,
                5,
                6,
                7,
                8,
                9
            ],
            "name" : "Box063",
            "rotation" : [
                -0.7071068286895752,
                0,
                0,
                0.7071068286895752
            ],
            "translation" : [
                -73.51248168945312,
                0,
                74.02098846435547
            ]
        },
        {
            "children" : [
                10
            ],
            "name" : "RootNode"
        },
        {
            "children" : [
                11
            ],
            "name" : "99ae941c1c0848db95da70fa50f345b9.fbx",
            "rotation" : [
                0.7071068286895752,
                0,
                0,
                0.7071068286895752
            ]
        },
        {
            "children" : [
                12
            ],
            "name" : "RootNode (model correction matrix)"
        },
        {
            "children" : [
                13
            ],
            "name" : "RootNode (gltf orientation matrix)",
            "rotation" : [
                -0.7071067690849304,
                0,
                0,
                0.7071067690849304
            ],
            "scale" : [
                0.05378109961748123,
                0.05378109961748123,
                0.05378109961748123
            ]
        }
    ],
    "materials" : [
        {
            "doubleSided" : true,
            "emissiveFactor" : [
                0,
                0,
                0
            ],
            "name" : "01_-_Default",
            "pbrMetallicRoughness" : {
                "baseColorFactor" : [
                    0.3231360912322998,
                    0.3231360912322998,
                    0.3231360912322998,
                    1
                ],
                "metallicFactor" : 0.800000011920929,
                "roughnessFactor" : 0.10000000149011612
            }
        },
        {
            "doubleSided" : true,
            "emissiveFactor" : [
                0,
                0,
                0
            ],
            "name" : "22_-_Default",
            "pbrMetallicRoughness" : {
                "baseColorFactor" : [
                    0,
                    0,
                    0,
                    1
                ],
                "metallicFactor" : 0,
                "roughnessFactor" : 0.6000000238418579
            }
        },
        {
            "doubleSided" : true,
            "emissiveFactor" : [
                0,
                0,
                0
            ],
            "name" : "azul",
            "pbrMetallicRoughness" : {
                "baseColorFactor" : [
                    0,
                    0.014708900824189186,
                    0.23300233483314514,
                    1
                ],
                "metallicFactor" : 0.20000000298023224,
                "roughnessFactor" : 1
            }
        },
        {
            "doubleSided" : true,
            "emissiveFactor" : [
                0,
                0,
                0
            ],
            "name" : "branco",
            "pbrMetallicRoughness" : {
                "baseColorFactor" : [
                    1,
                    1,
                    1,
                    1
                ],
                "metallicFactor" : 0.20000000298023224,
                "roughnessFactor" : 0.19158056378364563
            }
        },
        {
            "doubleSided" : true,
            "emissiveFactor" : [
                0,
                0,
                0
            ],
            "name" : "chome",
            "pbrMetallicRoughness" : {
                "baseColorFactor" : [
                    0.31854677200317383,
                    0.31854677200317383,
                    0.31854677200317383,
                    1
                ],
                "metallicFactor" : 0.800000011920929,
                "roughnessFactor" : 0.10000000149011612
            }
        },
        {
            "doubleSided" : true,
            "emissiveFactor" : [
                0,
                0,
                0
            ],
            "name" : "logo",
            "pbrMetallicRoughness" : {
                "baseColorTexture" : {
                    "index" : 0,
                    "texCoord" : 0
                },
                "metallicFactor" : 0.20000000298023224,
                "roughnessFactor" : 0.4000000059604645
            }
        },
        {
            "doubleSided" : true,
            "emissiveFactor" : [
                0,
                0,
                0
            ],
            "name" : "Material_27289",
            "pbrMetallicRoughness" : {
                "baseColorFactor" : [
                    0.31854677200317383,
                    0.31854677200317383,
                    0.31854677200317383,
                    1
                ],
                "metallicFactor" : 0.8266012668609619,
                "roughnessFactor" : 0.05218663066625595
            }
        },
        {
            "doubleSided" : true,
            "emissiveFactor" : [
                0,
                0,
                0
            ],
            "name" : "Material_27729",
            "pbrMetallicRoughness" : {
                "baseColorTexture" : {
                    "index" : 1,
                    "texCoord" : 0
                },
                "metallicFactor" : 0.20000000298023224,
                "roughnessFactor" : 0.4000000059604645
            }
        },
        {
            "doubleSided" : true,
            "emissiveFactor" : [
                0,
                0,
                0
            ],
            "name" : "sofa_branco",
            "pbrMetallicRoughness" : {
                "baseColorFactor" : [
                    1,
                    1,
                    1,
                    1
                ],
                "metallicFactor" : 0.20000000298023224,
                "roughnessFactor" : 0.6000000238418579
            }
        },
        {
            "alphaMode" : "BLEND",
            "doubleSided" : true,
            "emissiveFactor" : [
                0,
                0,
                0
            ],
            "name" : "VIDRO",
            "pbrMetallicRoughness" : {
                "baseColorFactor" : [
                    0,
                    1,
                    0.97146075963974,
                    0.07999999821186066
                ],
                "metallicFactor" : 0.905389130115509,
                "roughnessFactor" : 0
            }
        }
    ],
    "meshes" : [
        {
            "name" : "Box063_01 - Default_0",
            "primitives" : [
                {
                    "attributes" : {
                        "POSITION" : 0,
                        "NORMAL" : 1
                    },
                    "indices" : 2,
                    "material" : 0
                }
            ]
        },
        {
            "name" : "Box063_22 - Default_0",
            "primitives" : [
                {
                    "attributes" : {
                        "POSITION" : 3,
                        "NORMAL" : 4
                    },
                    "indices" : 5,
                    "material" : 1
                }
            ]
        },
        {
            "name" : "Box063_azul_0",
            "primitives" : [
                {
                    "attributes" : {
                        "POSITION" : 6,
                        "NORMAL" : 7
                    },
                    "indices" : 8,
                    "material" : 2
                }
            ]
        },
        {
            "name" : "Box063_branco_0",
            "primitives" : [
                {
                    "attributes" : {
                        "POSITION" : 9,
                        "NORMAL" : 10
                    },
                    "indices" : 11,
                    "material" : 3
                }
            ]
        },
        {
            "name" : "Box063_chome_0",
            "primitives" : [
                {
                    "attributes" : {
                        "POSITION" : 12,
                        "NORMAL" : 13
                    },
                    "indices" : 14,
                    "material" : 4
                }
            ]
        },
        {
            "name" : "Box063_logo_0",
            "primitives" : [
                {
                    "attributes" : {
                        "POSITION" : 15,
                        "NORMAL" : 16,
                        "TEXCOORD_0" : 17
                    },
                    "indices" : 18,
                    "material" : 5
                }
            ]
        },
        {
            "name" : "Box063_Material #27289_0",
            "primitives" : [
                {
                    "attributes" : {
                        "POSITION" : 19,
                        "NORMAL" : 20
                    },
                    "indices" : 21,
                    "material" : 6
                }
            ]
        },
        {
            "name" : "Box063_Material #27729_0",
            "primitives" : [
                {
                    "attributes" : {
                        "POSITION" : 22,
                        "NORMAL" : 23,
                        "TEXCOORD_0" : 24
                    },
                    "indices" : 25,
                    "material" : 7
                }
            ]
        },
        {
            "name" : "Box063_sofa branco_0",
            "primitives" : [
                {
                    "attributes" : {
                        "POSITION" : 26,
                        "NORMAL" : 27
                    },
                    "indices" : 28,
                    "material" : 8
                }
            ]
        },
        {
            "name" : "Box063_VIDRO_0",
            "primitives" : [
                {
                    "attributes" : {
                        "POSITION" : 29,
                        "NORMAL" : 30
                    },
                    "indices" : 31,
                    "material" : 9
                }
            ]
        }
    ],
    "textures" : [
        {
            "source" : 0
        },
        {
            "source" : 1
        }
    ],
    "images" : [
        {
            "bufferView" : 19,
            "mimeType" : "image/jpeg",
            "name" : "logo_baseColor"
        },
        {
            "bufferView" : 27,
            "mimeType" : "image/jpeg",
            "name" : "Material_27729_baseColor"
        }
    ],
    "accessors" : [
        {
            "bufferView" : 0,
            "componentType" : 5126,
            "count" : 268,
            "max" : [
                273.1185302734375,
                222.58547973632812,
                380.0000305175781
            ],
            "min" : [
                -273.0391540527344,
                -224.57177734375,
                0.21288348734378815
            ],
            "type" : "VEC3"
        },
        {
            "bufferView" : 1,
            "componentType" : 5126,
            "count" : 268,
            "type" : "VEC3"
        },
        {
            "bufferView" : 2,
            "componentType" : 5123,
            "count" : 396,
            "type" : "SCALAR"
        },
        {
            "bufferView" : 3,
            "componentType" : 5126,
            "count" : 612,
            "max" : [
                204.3431396484375,
                162.77252197265625,
                1.4475555419921875
            ],
            "min" : [
                65.721435546875,
                15.55584716796875,
                0.2393798828125
            ],
            "type" : "VEC3"
        },
        {
            "bufferView" : 4,
            "componentType" : 5126,
            "count" : 612,
            "type" : "VEC3"
        },
        {
            "bufferView" : 5,
            "componentType" : 5123,
            "count" : 768,
            "type" : "SCALAR"
        },
        {
            "bufferView" : 6,
            "componentType" : 5126,
            "count" : 176,
            "max" : [
                272.54010009765625,
                222.0067138671875,
                375.8603210449219
            ],
            "min" : [
                -272.4604187011719,
                -221.74246215820312,
                219.32308959960938
            ],
            "type" : "VEC3"
        },
        {
            "bufferView" : 7,
            "componentType" : 5126,
            "count" : 176,
            "type" : "VEC3"
        },
        {
            "bufferView" : 8,
            "componentType" : 5123,
            "count" : 258,
            "type" : "SCALAR"
        },
        {
            "bufferView" : 9,
            "componentType" : 5126,
            "count" : 4999,
            "max" : [
                272.54010009765625,
                222.0067138671875,
                378.9863586425781
            ],
            "min" : [
                -272.4604187011719,
                -226.887939453125,
                -2
            ],
            "type" : "VEC3"
        },
        {
            "bufferView" : 10,
            "componentType" : 5126,
            "count" : 4999,
            "type" : "VEC3"
        },
        {
            "bufferView" : 11,
            "componentType" : 5123,
            "count" : 16590,
            "type" : "SCALAR"
        },
        {
            "bufferView" : 12,
            "componentType" : 5126,
            "count" : 7620,
            "max" : [
                274.29071044921875,
                223.75706481933594,
                380.0001220703125
            ],
            "min" : [
                -274.2111511230469,
                -227.72186279296875,
                0.2128448486328125
            ],
            "type" : "VEC3"
        },
        {
            "bufferView" : 13,
            "componentType" : 5126,
            "count" : 7620,
            "type" : "VEC3"
        },
        {
            "bufferView" : 14,
            "componentType" : 5123,
            "count" : 14676,
            "type" : "SCALAR"
        },
        {
            "bufferView" : 15,
            "componentType" : 5126,
            "count" : 72,
            "max" : [
                123.55526733398438,
                -225.832763671875,
                377.8103942871094
            ],
            "min" : [
                -172.62734985351562,
                -226.832763671875,
                274.8103942871094
            ],
            "type" : "VEC3"
        },
        {
            "bufferView" : 16,
            "componentType" : 5126,
            "count" : 72,
            "type" : "VEC3"
        },
        {
            "bufferView" : 17,
            "componentType" : 5126,
            "count" : 72,
            "type" : "VEC2"
        },
        {
            "bufferView" : 18,
            "componentType" : 5123,
            "count" : 108,
            "type" : "SCALAR"
        },
        {
            "bufferView" : 20,
            "componentType" : 5126,
            "count" : 2887,
            "max" : [
                213.1135711669922,
                171.54295349121094,
                92.09909057617188
            ],
            "min" : [
                56.95100784301758,
                6.7854204177856445,
                0.5519211292266846
            ],
            "type" : "VEC3"
        },
        {
            "bufferView" : 21,
            "componentType" : 5126,
            "count" : 2887,
            "type" : "VEC3"
        },
        {
            "bufferView" : 22,
            "componentType" : 5123,
            "count" : 4464,
            "type" : "SCALAR"
        },
        {
            "bufferView" : 23,
            "componentType" : 5126,
            "count" : 58,
            "max" : [
                276,
                225.70709228515625,
                375
            ],
            "min" : [
                -276,
                -225,
                -1
            ],
            "type" : "VEC3"
        },
        {
            "bufferView" : 24,
            "componentType" : 5126,
            "count" : 58,
            "type" : "VEC3"
        },
        {
            "bufferView" : 25,
            "componentType" : 5126,
            "count" : 58,
            "type" : "VEC2"
        },
        {
            "bufferView" : 26,
            "componentType" : 5123,
            "count" : 84,
            "type" : "SCALAR"
        },
        {
            "bufferView" : 28,
            "componentType" : 5126,
            "count" : 2037,
            "max" : [
                206.19500732421875,
                164.62437438964844,
                49.2849235534668
            ],
            "min" : [
                63.86957550048828,
                13.7039794921875,
                45.2849006652832
            ],
            "type" : "VEC3"
        },
        {
            "bufferView" : 29,
            "componentType" : 5126,
            "count" : 2037,
            "type" : "VEC3"
        },
        {
            "bufferView" : 30,
            "componentType" : 5123,
            "count" : 2112,
            "type" : "SCALAR"
        },
        {
            "bufferView" : 31,
            "componentType" : 5126,
            "count" : 757,
            "max" : [
                271.72955322265625,
                127.24012756347656,
                206.57492065429688
            ],
            "min" : [
                -271.64996337890625,
                -224.24322509765625,
                84.11235046386719
            ],
            "type" : "VEC3"
        },
        {
            "bufferView" : 32,
            "componentType" : 5126,
            "count" : 757,
            "type" : "VEC3"
        },
        {
            "bufferView" : 33,
            "componentType" : 5123,
            "count" : 1284,
            "type" : "SCALAR"
        }
    ],
    "bufferViews" : [
        {
            "buffer" : 0,
            "byteLength" : 3216,
            "byteOffset" : 0
        },
        {
            "buffer" : 0,
            "byteLength" : 3216,
            "byteOffset" : 3216
        },
        {
            "buffer" : 0,
            "byteLength" : 792,
            "byteOffset" : 6432
        },
        {
            "buffer" : 0,
            "byteLength" : 7344,
            "byteOffset" : 7224
        },
        {
            "buffer" : 0,
            "byteLength" : 7344,
            "byteOffset" : 14568
        },
        {
            "buffer" : 0,
            "byteLength" : 1536,
            "byteOffset" : 21912
        },
        {
            "buffer" : 0,
            "byteLength" : 2112,
            "byteOffset" : 23448
        },
        {
            "buffer" : 0,
            "byteLength" : 2112,
            "byteOffset" : 25560
        },
        {
            "buffer" : 0,
            "byteLength" : 516,
            "byteOffset" : 27672
        },
        {
            "buffer" : 0,
            "byteLength" : 59988,
            "byteOffset" : 28188
        },
        {
            "buffer" : 0,
            "byteLength" : 59988,
            "byteOffset" : 88176
        },
        {
            "buffer" : 0,
            "byteLength" : 33180,
            "byteOffset" : 148164
        },
        {
            "buffer" : 0,
            "byteLength" : 91440,
            "byteOffset" : 181344
        },
        {
            "buffer" : 0,
            "byteLength" : 91440,
            "byteOffset" : 272784
        },
        {
            "buffer" : 0,
            "byteLength" : 29352,
            "byteOffset" : 364224
        },
        {
            "buffer" : 0,
            "byteLength" : 864,
            "byteOffset" : 393576
        },
        {
            "buffer" : 0,
            "byteLength" : 864,
            "byteOffset" : 394440
        },
        {
            "buffer" : 0,
            "byteLength" : 576,
            "byteOffset" : 395304
        },
        {
            "buffer" : 0,
            "byteLength" : 216,
            "byteOffset" : 395880
        },
        {
            "buffer" : 0,
            "byteLength" : 38851,
            "byteOffset" : 396096
        },
        {
            "buffer" : 0,
            "byteLength" : 34644,
            "byteOffset" : 434948
        },
        {
            "buffer" : 0,
            "byteLength" : 34644,
            "byteOffset" : 469592
        },
        {
            "buffer" : 0,
            "byteLength" : 8928,
            "byteOffset" : 504236
        },
        {
            "buffer" : 0,
            "byteLength" : 696,
            "byteOffset" : 513164
        },
        {
            "buffer" : 0,
            "byteLength" : 696,
            "byteOffset" : 513860
        },
        {
            "buffer" : 0,
            "byteLength" : 464,
            "byteOffset" : 514556
        },
        {
            "buffer" : 0,
            "byteLength" : 168,
            "byteOffset" : 515020
        },
        {
            "buffer" : 0,
            "byteLength" : 54301,
            "byteOffset" : 515188
        },
        {
            "buffer" : 0,
            "byteLength" : 24444,
            "byteOffset" : 569492
        },
        {
            "buffer" : 0,
            "byteLength" : 24444,
            "byteOffset" : 593936
        },
        {
            "buffer" : 0,
            "byteLength" : 4224,
            "byteOffset" : 618380
        },
        {
            "buffer" : 0,
            "byteLength" : 9084,
            "byteOffset" : 622604
        },
        {
            "buffer" : 0,
            "byteLength" : 9084,
            "byteOffset" : 631688
        },
        {
            "buffer" : 0,
            "byteLength" : 2568,
            "byteOffset" : 640772
        }
    ],
    "buffers" : [
        {
            "byteLength" : 643340,
            "uri" : "data:application/octet-stream;base64,"
        }
    ]
}
